<svg xmlns="http://www.w3.org/2000/svg" width="25.35" height="31.815" viewBox="0 0 25.35 31.815">
  <g id="Group_15" data-name="Group 15" transform="translate(-147.189 -25.113)">
    <path id="Path_21" data-name="Path 21" d="M159.061,25.288h1.6a1.421,1.421,0,0,0,.148.04,6.113,6.113,0,0,1,5.156,5.834c.006.248.11.315.338.312.788-.008,1.577-.006,2.365,0a2.221,2.221,0,0,1,2.279,2.08c.051.56.092,1.121.137,1.682q.178,2.218.354,4.435.131,1.652.26,3.3.176,2.2.353,4.4c.093,1.152.175,2.3.283,3.455a5.233,5.233,0,0,1-4.421,5.922h-16.1a1.207,1.207,0,0,0-.118-.035,5.123,5.123,0,0,1-4.328-5.151c0-.86.116-1.714.182-2.57.11-1.428.214-2.856.328-4.283.153-1.916.315-3.832.469-5.748.147-1.815.282-3.63.437-5.444a2.212,2.212,0,0,1,2.244-2.049c.788-.005,1.577-.008,2.365,0,.255,0,.359-.067.372-.344a5.989,5.989,0,0,1,2.39-4.614A6.4,6.4,0,0,1,159.061,25.288Zm.8,29.6c2.4,0,4.793.005,7.189,0a3.271,3.271,0,0,0,3.327-2.552,5.281,5.281,0,0,0,.019-1.619c-.148-1.928-.316-3.853-.469-5.781-.133-1.682-.253-3.366-.386-5.048-.158-2.009-.323-4.017-.483-6.026-.029-.355-.16-.49-.527-.493-.747-.005-1.5,0-2.243-.005-.24,0-.327.088-.323.326.009.615.006,1.229,0,1.843a.948.948,0,1,1-1.889.008c-.005-.6-.01-1.209,0-1.813.005-.257-.07-.366-.347-.366q-3.871.012-7.742,0c-.277,0-.353.108-.348.365.012.6.008,1.208,0,1.813a.948.948,0,1,1-1.889-.007c0-.625-.005-1.249,0-1.874,0-.208-.08-.3-.291-.294-.768.005-1.536,0-2.3,0-.319,0-.467.136-.491.43q-.129,1.56-.249,3.12c-.111,1.428-.215,2.856-.329,4.283-.133,1.662-.275,3.323-.408,4.985q-.2,2.585-.4,5.171a3.16,3.16,0,0,0,1.186,2.793,3.346,3.346,0,0,0,2.228.735Q156.28,54.889,159.86,54.885Zm-.032-23.414h3.9c.182,0,.337.015.327-.265a4.191,4.191,0,0,0-8.369-.154c-.033.418-.033.418.4.418Z" transform="translate(0 0)" stroke="#fff" stroke-width="0.35"/>
    <path id="Path_22" data-name="Path 22" d="M169.785,52.011a.947.947,0,0,1-.307.712q-2.342,2.346-4.69,4.687a.942.942,0,0,1-1.442-.012q-1.073-1.055-2.127-2.127a.956.956,0,1,1,1.342-1.355c.426.413.851.828,1.256,1.261.187.2.3.219.506.01,1.234-1.255,2.484-2.493,3.727-3.74a1.067,1.067,0,0,1,.806-.378A.932.932,0,0,1,169.785,52.011Z" transform="translate(-5.479 -10.443)" stroke="#fff" stroke-width="0.35"/>
  </g>
</svg>
