<svg xmlns="http://www.w3.org/2000/svg" width="27.838" height="28.28" viewBox="0 0 27.838 28.28">
  <g id="Group_14" data-name="Group 14" transform="translate(-68.318 -269.667)">
    <path id="Path_15" data-name="Path 15" d="M95.538,276.826c-.338,0-.676,0-1.013,0q-2.763,0-5.525,0c-.113,0-.258.069-.312-.134a2.264,2.264,0,0,0-1.226-1.48,2.978,2.978,0,1,0-4.094-4.264,2.83,2.83,0,0,0-.641,2.195,2.994,2.994,0,0,0,2.024,2.512l-.326.177q-2.618,1.4-5.237,2.791a1.63,1.63,0,0,0-.852.9.347.347,0,0,1-.423.271,2.579,2.579,0,0,0-2.128.729,1.143,1.143,0,0,1-.07-.125,1.984,1.984,0,0,0-2.024-1.391c-.207,0-.414-.006-.621,0-.332.01-.447.124-.448.461q0,1.537,0,3.073c0,.349.124.471.469.476a2.747,2.747,0,0,0,2-.465,13.663,13.663,0,0,0,.011,1.611,2.965,2.965,0,0,1-.86,2.573.629.629,0,0,1-.459.24,6.377,6.377,0,0,0-2.4.558,5.48,5.48,0,0,0-2.8,2.842c-.207.467-.058.683.445.685h.664a4.993,4.993,0,0,0-.409.943A4.264,4.264,0,0,0,69.1,293a4.456,4.456,0,0,0,8.866.876c.038-.288.139-.316.38-.315,2.212.008,4.424.013,6.636-.005.3,0,.355.11.387.36a4.454,4.454,0,0,0,8.757.383c.051-.231.009-.543.147-.68.159-.159.476-.051.723-.05a.407.407,0,0,0,.473-.445,12.343,12.343,0,0,0-.233-3.249,7.311,7.311,0,0,0-2.005-3.987c-.1-.093-.2-.184-.335-.315.911,0,1.759,0,2.606,0,.361,0,.48-.11.48-.459q0-3.923,0-7.846C95.981,276.958,95.826,276.828,95.538,276.826Zm-21.31,5.357a1.234,1.234,0,0,1-.122.045c-.664.189-.763.117-.762-.554,0-.218,0-.436,0-.654,0-.36,0-.719,0-1.078,0-.092-.027-.182.128-.208a1.343,1.343,0,0,1,1.494.894A1.271,1.271,0,0,1,74.228,282.184Zm9.207-9.373a2.243,2.243,0,1,1,2.245,2.235A2.233,2.233,0,0,1,83.435,272.81Zm-3.912,6.46q2.319-1.229,4.633-2.466c.518-.276,1.033-.556,1.553-.829a1.51,1.51,0,0,1,2.322,1.385c.01,1.188,0,2.375,0,3.563s-.009,2.376.007,3.563c0,.277-.05.367-.351.364-1.776-.017-3.552-.009-5.329-.008-.519,0-.59.069-.59.576,0,1.536-.006,3.073,0,4.609,0,.239-.048.328-.3.309-.336-.024-.675-.012-1.013,0-.153,0-.209-.042-.209-.2,0-1.951,0-3.9.01-5.852a1.023,1.023,0,0,1,1.064-1.013c1.024-.009,2.049,0,3.073,0,.573,0,.648-.077.648-.662,0-1.014,0-2.027,0-3.04a.357.357,0,0,1,.222-.375c.61-.31,1.212-.638,1.817-.958a.4.4,0,0,0,.261-.44c-.048-.274-.308-.362-.621-.2-.962.506-1.92,1.018-2.88,1.528-1.152.612-2.3,1.231-3.455,1.835a.943.943,0,0,1-1.444-.845A.965.965,0,0,1,79.523,279.271Zm4.791,10.838c0,.172-.054.226-.224.222-.456-.009-.914-.013-1.37,0-.2.007-.229-.075-.227-.247.008-.718,0-1.435,0-2.153s.008-1.414-.005-2.12c0-.2.051-.258.252-.251.445.016.892.009,1.337,0,.152,0,.236.015.235.205Q84.3,287.939,84.313,290.109Zm-14.913.22a4.852,4.852,0,0,1,2.832-2.34,6,6,0,0,1,1.6-.283.288.288,0,0,1,.311.164q.631,1.12,1.283,2.228c.1.177.1.234-.129.234C73.351,290.326,71.406,290.329,69.4,290.329Zm7.793,3.76a3.728,3.728,0,1,1-6.8-2.77.463.463,0,0,1,.462-.265c.805.016,1.611.006,2.416.006s1.633.005,2.449,0a.367.367,0,0,1,.383.217c.284.525.567,1.055.9,1.549A1.539,1.539,0,0,1,77.193,294.089Zm16.274-.269a3.732,3.732,0,0,1-7.3.447c-.186-.71-.186-.71.533-.71h.261a.791.791,0,0,1,1.063.617,1.809,1.809,0,0,0,1.9,1.1,1.919,1.919,0,0,0,1.729-1.411c.067-.241.159-.326.414-.309a10,10,0,0,0,1.176,0C93.475,293.54,93.494,293.631,93.468,293.819Zm-4.719-.264c.736,0,1.473,0,2.211,0a1.154,1.154,0,0,1-1.065.978,1.251,1.251,0,0,1-1.287-.794C88.559,293.589,88.6,293.554,88.749,293.555Zm5.175-5.382a10.821,10.821,0,0,1,.824,4.459c0,.27-.173.194-.305.194q-3.4,0-6.8,0H86.272c-2.713,0-5.425,0-8.138.006a.451.451,0,0,1-.454-.266q-1.42-2.494-2.864-4.973c-.113-.193-.122-.33.036-.483a3.327,3.327,0,0,0,.979-2.926,15.514,15.514,0,0,1-.009-1.992,1.664,1.664,0,0,1,1-1.523c.23-.117.333-.112.33.2-.014,1.688,0,3.377-.01,5.066a5.109,5.109,0,0,0,.677,2.651c.4.7.784,1.4,1.162,2.114a.592.592,0,0,0,.59.361c1.645-.011,3.29,0,4.935-.006.422,0,.534-.116.535-.546,0-1.547.008-3.094-.007-4.641,0-.269.083-.313.326-.311q2.909.014,5.817,0a1.173,1.173,0,0,1,.587.154A4.966,4.966,0,0,1,93.924,288.173Zm1.037-3.329q-2.942-.012-5.884,0c-.266,0-.32-.079-.317-.326.013-1.111.006-2.223.006-3.335s.006-2.223,0-3.335c0-.218.04-.3.28-.3q2.975.015,5.95,0c.222,0,.265.07.264.275q-.01,3.367,0,6.735C95.257,284.806,95.179,284.844,94.961,284.844Z" stroke="#000" stroke-width="0.35"/>
    <path id="Path_16" data-name="Path 16" d="M126.589,339.774c-.42-.775-.826-1.5-1.212-2.244a3.378,3.378,0,0,1-.359-1.576q-.006-2.727,0-5.455c0-.091-.067-.23.116-.251a.253.253,0,0,1,.309.2,1.653,1.653,0,0,0,2.41.888c1.108-.576,2.207-1.17,3.31-1.755.076-.04.153-.077.22-.111.1.039.068.115.068.172,0,.784-.008,1.568.007,2.352,0,.226-.073.271-.278.269-.86-.009-1.72-.006-2.58,0a1.817,1.817,0,0,0-1.952,1.959c0,1.731,0,3.462,0,5.194A.61.61,0,0,1,126.589,339.774Z" transform="translate(-47.133 -49.725)" fill="#fff" stroke="#000" stroke-width="0.35"/>
    <path id="Path_17" data-name="Path 17" d="M179.914,377.884a13.72,13.72,0,0,1,2.024.07,3.576,3.576,0,0,1,2.777,3.056c.035.35-.085.55-.343.556-.284.006-.358-.178-.388-.422a2.776,2.776,0,0,0-2.376-2.5,8.721,8.721,0,0,0-1.272-.034q-1.128-.006-2.256,0c-.256,0-.463-.056-.485-.355-.019-.251.145-.371.492-.372C178.653,377.883,179.219,377.884,179.914,377.884Z" transform="translate(-90.99 -90.102)" stroke="#000" stroke-width="0.35"/>
    <path id="Path_18" data-name="Path 18" d="M90.982,401.234a1.972,1.972,0,1,1-1.972-1.972A1.972,1.972,0,0,1,90.982,401.234Z" transform="translate(-15.467 -107.936)"/>
  </g>
</svg>
