<svg xmlns="http://www.w3.org/2000/svg" width="24.815" height="28.662" viewBox="0 0 24.815 28.662">
  <g id="Group_12" data-name="Group 12" transform="translate(-203.169 -417.818)">
    <path id="Path_8" data-name="Path 8" d="M227.466,423.732c-.578-.556-1.147-1.12-1.723-1.678-1.277-1.238-2.52-2.512-3.805-3.742a1.081,1.081,0,0,0-.607-.344H206.058a5.05,5.05,0,0,0-.753.152,3.185,3.185,0,0,0-1.987,3.022q0,10.995,0,21.989c0,.065,0,.129,0,.194a3.133,3.133,0,0,0,3.02,3.006c6.159-.014,12.318,0,18.477-.008a2.609,2.609,0,0,0,.793-.09,3.175,3.175,0,0,0,2.22-3q.01-9.307,0-18.615A1.164,1.164,0,0,0,227.466,423.732Zm-5.506-2.977,2.745,2.9c-.725,0-1.553,0-2.382,0-.2,0-.358-.064-.36-.286C221.956,422.529,221.96,421.686,221.96,420.755Zm4.127,22.415a1.427,1.427,0,0,1-1.469,1.466q-9.045,0-18.089,0a1.43,1.43,0,0,1-1.466-1.5q0-5.5,0-11.009,0-5.448,0-10.9a1.454,1.454,0,0,1,1.608-1.605q6.666,0,13.332-.005c.231,0,.307.038.3.292-.017,1.106-.009,2.213-.007,3.319a1.945,1.945,0,0,0,2.094,2.083c1.153,0,2.3,0,3.458,0,.191,0,.243.043.242.239Q226.085,434.36,226.087,443.17Z" transform="translate(0 0)" stroke="#fff" stroke-width="0.3"/>
    <path id="Path_9" data-name="Path 9" d="M230.194,468.132q-2.889,0-5.777,0a.826.826,0,0,1-.806-1.155.8.8,0,0,1,.732-.5c.2-.011.405,0,.608,0H235.98a.839.839,0,0,1,.911.737.827.827,0,0,1-.865.921c-1.271,0-2.543,0-3.814,0Z" transform="translate(-14.731 -35.335)" stroke="#fff" stroke-width="0.3"/>
    <path id="Path_10" data-name="Path 10" d="M229.691,492.593c-1.76,0-3.52,0-5.28,0a.828.828,0,0,1-.785-1.2.866.866,0,0,1,.847-.457q3.856.007,7.713,0,1.382,0,2.764,0a.836.836,0,1,1-.007,1.659Z" transform="translate(-14.724 -53.157)" stroke="#fff" stroke-width="0.3"/>
    <path id="Path_11" data-name="Path 11" d="M229.163,478.71h4.648a.837.837,0,1,1-.011,1.659h-9.3a.837.837,0,1,1,.011-1.659Z" transform="translate(-14.75 -44.253)" stroke="#fff" stroke-width="0.3"/>
  </g>
</svg>
