<svg xmlns="http://www.w3.org/2000/svg" width="30.205" height="24.827" viewBox="0 0 30.205 24.827">
  <g id="Group_11" data-name="Group 11" transform="translate(-223.753 -246.054)">
    <path id="Path_6" data-name="Path 6" d="M253.632,255.1c-3-5.32-7.472-8.409-13.624-8.868a16.06,16.06,0,0,0-10.546,2.8,16.8,16.8,0,0,0-5.46,6.183c-.261.5-.176.753.313,1.028.6.339,1.2.689,1.808,1.012a.458.458,0,0,1,.271.478q-.01,6.1,0,12.2c0,.633.186.82.817.82h23.209c.661,0,.839-.175.839-.826q0-6.087-.006-12.175a.47.47,0,0,1,.281-.5c.6-.312,1.192-.659,1.792-.98a1.362,1.362,0,0,0,.514-.445v-.351C253.766,255.352,253.7,255.223,253.632,255.1Zm-10.193,14.494c-1.531-.012-3.062-.006-4.594-.006s-3.043-.009-4.564.008c-.272,0-.322-.081-.309-.324.02-.379.013-.761,0-1.141-.005-.171.031-.234.221-.233q4.652.01,9.3,0c.193,0,.224.067.219.235-.011.39-.016.781,0,1.17C243.729,269.52,243.677,269.593,243.438,269.591Zm-9.465-7.372c0-.153.041-.2.195-.2q4.68.006,9.36,0c.162,0,.192.055.189.2-.009.439-.015.878,0,1.316.008.2-.049.257-.255.256-1.541-.009-3.081-.005-4.622-.005-1.521,0-3.042-.008-4.563.008-.27,0-.32-.078-.309-.323C233.991,263.058,233.983,262.638,233.973,262.219Zm9.437,4.516c-2.74-.012-5.481-.007-8.221-.007-.332,0-.664-.012-.995,0-.189.01-.227-.055-.222-.229.012-.419.016-.839,0-1.258-.009-.221.044-.291.28-.289,1.531.012,3.062.006,4.593.006s3.062.006,4.593-.006c.235,0,.291.066.281.289a11.443,11.443,0,0,0,0,1.17C243.734,266.663,243.677,266.736,243.41,266.735Zm.587-5.88q-5.5,0-11,.006c-.236,0-.325-.044-.307-.3a8.064,8.064,0,0,0,0-.994c-.01-.194.052-.239.241-.238,1.969.007,3.939,0,5.908,0,1.95,0,3.9,0,5.85-.005.231,0,.327.033.307.292-.026.349-.012.7,0,1.052,0,.138-.037.188-.18.183C244.543,260.848,244.27,260.856,244,260.856Zm8.289-5.346c-.391.2-.776.407-1.149.636-.181.111-.229.042-.31-.108a12.934,12.934,0,0,0-9.216-6.713.589.589,0,0,0-.776.415c-.077.367.128.643.568.729a12.269,12.269,0,0,1,5.858,2.863A10.752,10.752,0,0,1,250,257.007a.928.928,0,0,1,.084.394q0,5.957,0,11.913c0,.212-.04.279-.267.277q-2.342-.017-4.684,0c-.21,0-.256-.06-.255-.261q.01-3.527,0-7.054c0-.213.067-.253.264-.253.932,0,1.02-.093,1.02-1.019q0-1.039,0-2.078c0-.574-.181-.758-.747-.758H232.274c-.566,0-.746.185-.746.759q0,1.2,0,2.4c0,.477.217.693.7.7.581.01.581.01.581.6,0,2.225,0,4.449.005,6.674,0,.225-.049.293-.285.291q-2.342-.017-4.683,0c-.23,0-.289-.057-.289-.288q.011-5.928,0-11.855a1.141,1.141,0,0,1,.137-.527,11.855,11.855,0,0,1,7.28-6.125c.445-.144.9-.237,1.359-.338a.588.588,0,0,0,.517-.687.567.567,0,0,0-.721-.453,12.205,12.205,0,0,0-7.331,3.958,11.633,11.633,0,0,0-1.972,2.78c-.091.179-.16.18-.317.085-.357-.217-.723-.421-1.093-.616-.167-.088-.18-.165-.085-.327a15.089,15.089,0,0,1,6.353-6.125,15.361,15.361,0,0,1,14.819.269,15.193,15.193,0,0,1,5.863,5.863C252.451,255.35,252.457,255.424,252.286,255.51Z" transform="translate(0 0)" stroke="#707070" stroke-width="0.25"/>
    <path id="Path_7" data-name="Path 7" d="M315.457,264.551a.564.564,0,0,1,.576.57.582.582,0,0,1-.575.578.6.6,0,0,1-.593-.595A.566.566,0,0,1,315.457,264.551Z" transform="translate(-76.603 -15.464)" stroke="#707070" stroke-width="0.25"/>
  </g>
</svg>
