<svg xmlns="http://www.w3.org/2000/svg" width="27.304" height="27.288" viewBox="0 0 27.304 27.288">
  <g id="Group_13" data-name="Group 13" transform="translate(-159.884 -305.109)">
    <path id="Path_12" data-name="Path 12" d="M187.014,335.988a2.16,2.16,0,0,0-1.992-2.215c-.16-.017-.185-.067-.184-.208.006-.779.005-1.559,0-2.338a3.045,3.045,0,0,0-3.127-3.121c-.77,0-1.541-.006-2.311,0-.178,0-.225-.045-.222-.222.01-.788.006-1.577,0-2.366a2.171,2.171,0,0,0-3.165-1.966c-.241.119-.48.24-.751.376,0-.476,0-.9,0-1.327a2.158,2.158,0,0,0-1.306-2.134,2.1,2.1,0,0,0-2.4.445q-4.01,3.528-8.03,7.045a.544.544,0,0,1-.386.148,3.038,3.038,0,0,0-3.1,3.116q-.005,5.588,0,11.175a3.04,3.04,0,0,0,3.11,3.11q9.285,0,18.571,0a3.044,3.044,0,0,0,3.12-3.128q0-1.156,0-2.311c0-.141,0-.212.19-.23a2.119,2.119,0,0,0,1.948-1.816A13.157,13.157,0,0,0,187.014,335.988Zm-10.686-11.615a1.32,1.32,0,0,1,1.48.091,1.165,1.165,0,0,1,.5.951c.011.843,0,1.685.01,2.528,0,.2-.114.162-.224.162H168.95l-.007-.046,2.464-1.227Q173.868,325.6,176.328,324.372Zm-10.141,2.409q2.974-2.605,5.945-5.213a1.271,1.271,0,0,1,1.465-.311,1.335,1.335,0,0,1,.8,1.333c0,.525-.007,1.051,0,1.576a.27.27,0,0,1-.177.289q-3.59,1.783-7.176,3.576a.5.5,0,0,1-.2.069c-.7.005-1.4,0-2.168,0Zm17.783,15.61a2.175,2.175,0,0,1-2.244,2.248q-4.65,0-9.3,0h-9.191a2.184,2.184,0,0,1-2.327-2.328q0-5.506,0-11.013a2.182,2.182,0,0,1,2.331-2.324h18.409a2.183,2.183,0,0,1,2.322,2.333c0,.725-.009,1.451.006,2.175,0,.217-.037.287-.272.284-1.278-.014-2.557.023-3.834-.014a2.055,2.055,0,0,0-2.34,1.933,6.115,6.115,0,0,0,.077,2.588,1.926,1.926,0,0,0,2.049,1.578q2.039.005,4.079,0c.183,0,.245.033.242.231C183.964,340.85,183.973,341.621,183.971,342.392Zm2.176-4.782a1.309,1.309,0,0,1-1.387,1.373c-.861,0-1.722,0-2.582,0h-2.392c-.88,0-1.212-.258-1.38-1.123a5.5,5.5,0,0,1,.025-2.24,1.1,1.1,0,0,1,1.248-.988q2.542,0,5.083,0a1.306,1.306,0,0,1,1.386,1.374Q186.15,336.807,186.147,337.61Z" transform="translate(0 -13.268)" stroke="#000" stroke-width="0.31"/>
    <path id="Path_13" data-name="Path 13" d="M343.37,308.432q-1.018-1.376-2.044-2.746a1.065,1.065,0,0,0-.844-.422,1.052,1.052,0,0,0-.851.412c-.691.919-1.384,1.837-2.058,2.769a.74.74,0,0,0,.588,1.168,2.265,2.265,0,0,0,.407,0c.2-.025.24.061.23.243a2.757,2.757,0,0,1-1.481,2.373c-.415.239-.428.565-.048.852.505.382,1.014.761,1.52,1.142.325.244.435.248.775.008a6.086,6.086,0,0,0,2.58-4.085c.029-.169,0-.4.094-.493.114-.112.344-.03.523-.035a.731.731,0,0,0,.679-.417A.689.689,0,0,0,343.37,308.432Zm-1.471.313c-.392,0-.535.147-.549.538a5.251,5.251,0,0,1-1.931,3.974c-.158.135-.272.179-.45.018-.234-.211-.5-.385-.763-.581a3.623,3.623,0,0,0,1.432-2.452,3.531,3.531,0,0,0-.034-1.108.431.431,0,0,0-.451-.388c-.223,0-.446,0-.72,0l.925-1.248c.3-.407.6-.816.908-1.219.147-.194.271-.2.413-.009.607.809,1.208,1.623,1.841,2.475C342.277,308.745,342.088,308.744,341.9,308.745Z" transform="translate(-156.51 0)" stroke="#000" stroke-width="0.31"/>
    <path id="Path_14" data-name="Path 14" d="M327.5,448.365a1.74,1.74,0,1,0,1.734,1.753A1.746,1.746,0,0,0,327.5,448.365Zm-.02,2.61a.87.87,0,1,1,.884-.871A.879.879,0,0,1,327.478,450.975Z" transform="translate(-146.566 -126.566)" stroke="#000" stroke-width="0.31"/>
  </g>
</svg>
