<svg xmlns="http://www.w3.org/2000/svg" width="25" height="19.444" viewBox="0 0 25 19.444">
  <path id="Icon_awesome-tachometer-alt" data-name="Icon awesome-tachometer-alt" d="M12.5,2.25A12.5,12.5,0,0,0,1.7,21.035a1.373,1.373,0,0,0,1.191.66H22.114a1.373,1.373,0,0,0,1.191-.66A12.5,12.5,0,0,0,12.5,2.25Zm0,2.778a1.371,1.371,0,0,1,1.316,1.026,2.34,2.34,0,0,0-.15.289l-.4,1.2a1.353,1.353,0,0,1-.766.261,1.389,1.389,0,0,1,0-2.778Zm-8.333,12.5a1.389,1.389,0,1,1,1.389-1.389A1.389,1.389,0,0,1,4.167,17.528ZM6.25,10.583A1.389,1.389,0,1,1,7.639,9.194,1.389,1.389,0,0,1,6.25,10.583ZM16.961,7.441,14.3,15.427a2.726,2.726,0,0,1,.594,3.49H10.108a2.749,2.749,0,0,1,2.214-4.149l2.662-7.987a1.042,1.042,0,0,1,1.976.659ZM17.6,9.923,18.27,7.9a1.369,1.369,0,0,1,.48-.1,1.389,1.389,0,0,1,0,2.778A1.368,1.368,0,0,1,17.6,9.923Zm3.237,7.6a1.389,1.389,0,1,1,1.389-1.389A1.389,1.389,0,0,1,20.833,17.528Z" transform="translate(0 -2.25)" fill="#002b6b"/>
</svg>
