<svg xmlns="http://www.w3.org/2000/svg" width="25.153" height="25.153" viewBox="0 0 25.153 25.153">
  <g id="Icon_feather-settings" data-name="Icon feather-settings" transform="translate(-0.75 -0.75)">
    <path id="Path_19" data-name="Path 19" d="M19.951,16.725A3.225,3.225,0,1,1,16.725,13.5,3.225,3.225,0,0,1,19.951,16.725Z" transform="translate(-3.399 -3.399)" fill="none" stroke="#000" stroke-linecap="round" stroke-linejoin="round" stroke-width="1.5"/>
    <path id="Path_20" data-name="Path 20" d="M21.283,16.552a1.774,1.774,0,0,0,.355,1.957l.065.065a2.151,2.151,0,1,1-3.043,3.043l-.065-.065a1.788,1.788,0,0,0-3.032,1.269V23a2.15,2.15,0,1,1-4.3,0v-.1A1.774,1.774,0,0,0,10.1,21.283a1.774,1.774,0,0,0-1.957.355L8.08,21.7a2.151,2.151,0,1,1-3.043-3.043l.065-.065a1.788,1.788,0,0,0-1.269-3.032H3.65a2.15,2.15,0,0,1,0-4.3h.1A1.774,1.774,0,0,0,5.371,10.1a1.774,1.774,0,0,0-.355-1.957L4.951,8.08A2.151,2.151,0,1,1,7.994,5.037l.065.065a1.774,1.774,0,0,0,1.957.355H10.1a1.774,1.774,0,0,0,1.075-1.623V3.65a2.15,2.15,0,0,1,4.3,0v.1a1.788,1.788,0,0,0,3.032,1.269l.065-.065a2.151,2.151,0,1,1,3.043,3.043l-.065.065a1.774,1.774,0,0,0-.355,1.957V10.1a1.774,1.774,0,0,0,1.623,1.075H23a2.15,2.15,0,1,1,0,4.3h-.1a1.774,1.774,0,0,0-1.623,1.075Z" transform="translate(0 0)" fill="none" stroke="#000" stroke-linecap="round" stroke-linejoin="round" stroke-width="1.5"/>
  </g>
</svg>
